<?xml version="1.0" encoding="UTF-8" standalone="no"?>
<!-- Created with Inkscape (http://www.inkscape.org/) -->

<svg
   width="49.996376mm"
   height="6.3199997mm"
   id="svg3494"
   version="1.1"
   inkscape:version="1.1.2 (0a00cf5339, 2022-02-04)"
   sodipodi:docname="vectioneer-logo.svg"
   inkscape:export-filename="/home/philippe/Vectioneer/Marketing/Vectioneer-logo-100mm.png"
   inkscape:export-xdpi="433.71606"
   inkscape:export-ydpi="433.71606"
   viewBox="0 0 188.96268 23.886612"
   xmlns:inkscape="http://www.inkscape.org/namespaces/inkscape"
   xmlns:sodipodi="http://sodipodi.sourceforge.net/DTD/sodipodi-0.dtd"
   xmlns="http://www.w3.org/2000/svg"
   xmlns:svg="http://www.w3.org/2000/svg"
   xmlns:rdf="http://www.w3.org/1999/02/22-rdf-syntax-ns#"
   xmlns:cc="http://creativecommons.org/ns#"
   xmlns:dc="http://purl.org/dc/elements/1.1/">
  <defs
     id="defs3496">
    <inkscape:perspective
       sodipodi:type="inkscape:persp3d"
       inkscape:vp_x="0 : 396.17005 : 1"
       inkscape:vp_y="0 : 1066.6667 : 0"
       inkscape:vp_z="793.70095 : 396.17005 : 1"
       inkscape:persp3d-origin="396.85041 : 209.08347 : 1"
       id="perspective3502" />
    <inkscape:perspective
       id="perspective3477"
       inkscape:persp3d-origin="0.53333336 : -164.73419 : 1"
       inkscape:vp_z="1.0666667 : -164.55644 : 1"
       inkscape:vp_y="0 : 1066.6667 : 0"
       inkscape:vp_x="0 : -164.55644 : 1"
       sodipodi:type="inkscape:persp3d" />
  </defs>
  <sodipodi:namedview
     id="base"
     pagecolor="#ffffff"
     bordercolor="#666666"
     borderopacity="1.0"
     inkscape:pageopacity="0.0"
     inkscape:pageshadow="2"
     inkscape:zoom="3.959798"
     inkscape:cx="115.15739"
     inkscape:cy="46.08821"
     inkscape:document-units="mm"
     inkscape:current-layer="g2873"
     showgrid="false"
     units="mm"
     inkscape:window-width="1870"
     inkscape:window-height="1136"
     inkscape:window-x="0"
     inkscape:window-y="0"
     inkscape:window-maximized="1"
     fit-margin-top="0"
     fit-margin-left="0"
     fit-margin-right="0"
     fit-margin-bottom="0"
     inkscape:showpageshadow="false"
     inkscape:pagecheckerboard="0"
     lock-margins="false"
     scale-x="2" />
  <metadata
     id="metadata3499">
    <rdf:RDF>
      <cc:Work
         rdf:about="">
        <dc:format>image/svg+xml</dc:format>
        <dc:type
           rdf:resource="http://purl.org/dc/dcmitype/StillImage" />
      </cc:Work>
    </rdf:RDF>
  </metadata>
  <g
     inkscape:label="Layer 1"
     inkscape:groupmode="layer"
     id="layer1"
     transform="translate(-137.14013,-917.9205)">
    <g
       id="g2873"
       transform="matrix(2.1196597,0,0,2.1196597,94.493616,-589.777)"
       inkscape:export-xdpi="433.71606"
       inkscape:export-ydpi="433.71606">
      <g
         id="g849"
         transform="matrix(0.24175612,0,0,0.24175612,15.255495,539.33299)">
        <g
           style="font-style:normal;font-variant:normal;font-weight:bold;font-stretch:normal;font-size:63.0764px;line-height:125%;font-family:'Museo Sans';-inkscape-font-specification:'Museo Sans Bold';text-align:start;writing-mode:lr-tb;text-anchor:start;display:inline;fill:#000000;fill-opacity:1;stroke:none"
           id="text5211">
          <path
             d="M 36.077827,757.14874 H 47.557723 L 63.452964,712.04915 H 51.657686 l -8.073773,25.67208 c -0.883068,2.83843 -1.703061,7.25378 -1.703061,7.25378 h -0.126153 c 0,0 -0.819993,-4.41535 -1.703061,-7.25378 L 32.104017,712.04915 H 20.119511 l 15.958316,45.09959"
             id="path3050"
             inkscape:connector-curvature="0" />
          <path
             d="m 65.018981,757.14874 h 29.141274 v -9.46145 H 76.057343 v -8.51531 h 13.750644 v -9.46145 H 76.057343 v -8.19993 h 17.219844 v -9.46145 H 65.018981 v 45.09959"
             id="path3052"
             inkscape:connector-curvature="0" />
          <path
             d="m 92.977904,734.50433 c 0,13.37218 9.524546,23.40133 23.653636,23.40133 11.79526,0 18.16598,-7.56916 18.16598,-7.56916 l -5.67687,-8.07378 c 0,0 -5.17226,5.55072 -11.9845,5.55072 -8.32607,0 -12.74143,-6.87533 -12.74143,-13.56141 0,-6.49686 4.09997,-12.86758 12.74143,-12.86758 6.24455,0 11.29066,4.60458 11.29066,4.60458 l 5.10919,-8.32608 c 0,0 -5.73996,-6.37071 -16.90446,-6.37071 -13.56141,0 -23.653636,10.09222 -23.653636,23.21209"
             id="path3054"
             inkscape:connector-curvature="0" />
          <path
             d="m 148.86063,757.14874 h 11.03836 V 721.5106 h 13.68757 v -9.46145 h -38.4135 v 9.46145 h 13.68757 v 35.63814"
             id="path3056"
             inkscape:connector-curvature="0" />
          <path
             d="m 175.72419,757.14874 h 11.03836 v -45.09959 h -11.03836 v 45.09959"
             id="path3058"
             inkscape:connector-curvature="0" />
          <path
             d="m 188.87648,734.3151 c 0,13.24602 9.96608,23.59056 23.59055,23.59056 13.62448,0 23.59056,-10.34454 23.59056,-23.59056 0,-12.93064 -9.96608,-23.02286 -23.59056,-23.02286 -13.62447,0 -23.59055,10.09222 -23.59055,23.02286 m 11.41682,0 c 0,-7.37992 5.42457,-12.93065 12.17373,-12.93065 6.74917,0 12.17374,5.55073 12.17374,12.93065 0,7.69531 -5.42457,13.49834 -12.17374,13.49834 -6.74916,0 -12.17373,-5.80303 -12.17373,-13.49834"
             id="path3060"
             inkscape:connector-curvature="0" />
          <path
             d="m 238.21299,757.14874 h 11.03836 v -21.00442 c 0,-2.83844 -0.50461,-7.69532 -0.50461,-7.69532 h 0.12616 c 0,0 2.01844,4.73073 3.78458,7.69532 l 12.55219,21.00442 h 11.10144 v -45.09959 h -11.03836 v 21.0675 c 0,2.83844 0.50461,7.69532 0.50461,7.69532 h -0.12615 c 0,0 -2.01845,-4.73073 -3.78459,-7.69532 l -12.48911,-21.0675 h -11.16452 v 45.09959"
             id="path3062"
             inkscape:connector-curvature="0" />
          <path
             d="m 278.86932,757.14874 h 29.14127 v -9.46145 h -18.10291 v -8.51531 h 13.75065 v -9.46145 h -13.75065 v -8.19993 h 17.21984 v -9.46145 h -28.2582 v 45.09959"
             id="path3064"
             inkscape:connector-curvature="0" />
          <path
             d="m 309.67019,757.14874 h 29.14128 v -9.46145 h -18.10292 v -8.51531 h 13.75065 v -9.46145 h -13.75065 v -8.19993 h 17.21985 v -9.46145 h -28.25821 v 45.09959"
             id="path3066"
             inkscape:connector-curvature="0" />
          <path
             d="m 340.45962,757.14874 h 11.03836 v -15.2014 h 5.17226 l 8.0107,15.2014 h 12.29989 l -8.76761,-15.76909 c -1.0723,-1.89228 -1.70307,-2.71228 -1.70307,-2.71228 v -0.12615 c 4.47842,-2.27075 6.74917,-7.50609 6.74917,-12.29989 0,-6.55993 -3.2169,-11.16452 -8.32608,-13.11988 -1.95536,-0.75692 -4.16304,-1.0723 -8.76761,-1.0723 h -15.70601 v 45.09959 m 11.03836,-24.66285 V 721.5106 h 3.72151 c 5.55071,0 6.81224,2.01845 6.81224,5.42457 0,3.59535 -2.20767,5.55072 -5.73995,5.55072 h -4.7938"
             id="path3068"
             inkscape:connector-curvature="0" />
        </g>
        <circle
           style="color:#000000;display:inline;overflow:visible;visibility:visible;fill:#000000;fill-opacity:1;fill-rule:nonzero;stroke:none;stroke-width:0.125;marker:none;enable-background:accumulate"
           id="path5215"
           transform="matrix(2.4744316,0,0,2.4744316,-345.97729,907.96226)"
           cx="294.36264"
           cy="-63.441948"
           r="2.6135001" />
      </g>
    </g>
  </g>
</svg>
